<svg width="14" height="14" viewBox="0 0 14 14" fill="none" xmlns="http://www.w3.org/2000/svg">
<path d="M7 8.39999L2.1 13.3C1.91667 13.4833 1.68333 13.575 1.4 13.575C1.11667 13.575 0.883332 13.4833 0.699999 13.3C0.516666 13.1167 0.424999 12.8833 0.424999 12.6C0.424999 12.3167 0.516666 12.0833 0.699999 11.9L5.6 6.99999L0.699999 2.09999C0.516666 1.91665 0.424999 1.68332 0.424999 1.39999C0.424999 1.11665 0.516666 0.883321 0.699999 0.699987C0.883332 0.516654 1.11667 0.424988 1.4 0.424988C1.68333 0.424988 1.91667 0.516654 2.1 0.699987L7 5.59999L11.9 0.699987C12.0833 0.516654 12.3167 0.424988 12.6 0.424988C12.8833 0.424988 13.1167 0.516654 13.3 0.699987C13.4833 0.883321 13.575 1.11665 13.575 1.39999C13.575 1.68332 13.4833 1.91665 13.3 2.09999L8.4 6.99999L13.3 11.9C13.4833 12.0833 13.575 12.3167 13.575 12.6C13.575 12.8833 13.4833 13.1167 13.3 13.3C13.1167 13.4833 12.8833 13.575 12.6 13.575C12.3167 13.575 12.0833 13.4833 11.9 13.3L7 8.39999Z" fill="black"/>
</svg>
