<svg width="20" height="20" viewBox="0 0 28 24" fill="none" xmlns="http://www.w3.org/2000/svg">
<path d="M0.875 8.01562C0.875 16.2187 13.0379 22.8586 13.5559 23.1328C13.6924 23.2063 13.845 23.2447 14 23.2447C14.155 23.2447 14.3076 23.2063 14.4441 23.1328C14.9621 22.8586 27.125 16.2187 27.125 8.01562C27.1228 6.08933 26.3566 4.24255 24.9945 2.88045C23.6325 1.51835 21.7857 0.752171 19.8594 0.75C17.4395 0.75 15.3207 1.79062 14 3.54961C12.6793 1.79062 10.5605 0.75 8.14062 0.75C6.21433 0.752171 4.36755 1.51835 3.00545 2.88045C1.64335 4.24255 0.877171 6.08933 0.875 8.01562Z" fill="#0FA958"/>
</svg>
